Coordinates
version=1
nRows=32
nColumns=22
inDegrees=yes

Units are S.I. units (second, meters, Newtons, ...)
If the header above contains a line with 'inDegrees', this indicates whether rotational values are in degrees (yes) or radians (no).

endheader
time	pelvis_tilt	pelvis_list	pelvis_rotation	pelvis_tx	pelvis_ty	pelvis_tz	hip_flexion_r	hip_adduction_r	hip_rotation_r	knee_angle_r	ankle_angle_r	subtalar_angle_r	hip_flexion_l	hip_adduction_l	hip_rotation_l	knee_angle_l	ankle_angle_l	subtalar_angle_l	lumbar_extension	lumbar_bending	lumbar_rotation
      1.35000000	     -3.36145881	     -2.74388048	      2.28703403	     -0.96726973	      1.01061544	     -0.58895139	      5.61716293	     -1.05760273	     -3.52025949	    -15.98623504	     12.75607918	      3.78048312	      3.58352756	     -2.13088863	     -5.11514529	    -12.01843765	     12.50647881	     -3.03375589	     -1.48131776	     -1.28819039	     -2.68209517
      1.36000000	     -3.42569850	     -2.53792532	      2.26984154	     -0.96644087	      1.01007074	     -0.59041820	      6.11503965	     -1.38977189	     -3.37563769	    -16.91469275	     13.03892939	      4.03192493	      3.59600173	     -1.82079743	     -5.06901506	    -12.05272170	     12.54242626	     -3.05407572	     -1.44904539	     -1.52308842	     -2.61791555
      1.37000000	     -3.45969112	     -2.27989276	      2.22757797	     -0.96562001	      1.00950024	     -0.59185211	      6.66267927	     -1.77438626	     -3.19994251	    -17.98742136	     13.36024284	      4.19342337	      3.56291214	     -1.45806322	     -5.06628421	    -12.07031297	     12.58487885	     -3.06567518	     -1.47263918	     -1.81659667	     -2.55643296
      1.38000000	     -3.53113526	     -2.00061600	      2.15350567	     -0.96482086	      1.00880773	     -0.59322340	      7.34941961	     -2.18139661	     -3.00619864	    -19.22815488	     13.66959512	      4.43936968	      3.55998817	     -1.07403574	     -5.10455026	    -12.07301842	     12.66911932	     -3.08992074	     -1.46980329	     -2.13749606	     -2.48498100
      1.39000000	     -3.56196593	     -1.67525375	      2.04516973	     -0.96400339	      1.00812337	     -0.59447801	      8.07620133	     -2.62499147	     -2.78944659	    -20.60864909	     13.98759603	      4.59796475	      3.49780957	     -0.64833113	     -5.18181131	    -12.05682102	     12.71341919	     -3.10354566	     -1.53002882	     -2.52079138	     -2.40749823
      1.40000000	     -3.64516827	     -1.34889475	      1.90434284	     -0.96318987	      1.00731676	     -0.59563215	      8.95024804	     -3.06660032	     -2.57816139	    -22.13084241	     14.23359034	      4.86819631	      3.48461331	     -0.22554379	     -5.30208277	    -12.02892374	     12.80713301	     -3.13760825	     -1.54060896	     -2.91052996	     -2.31486689
      1.41000000	     -3.69348702	     -1.00237748	      1.73494299	     -0.96235441	      1.00653986	     -0.59664976	      9.85861839	     -3.51516433	     -2.37152890	    -23.75769183	     14.43888195	      5.07436838	      3.42493259	      0.21030954	     -5.45726874	    -11.98838206	     12.88388930	     -3.17180678	     -1.60653126	     -3.33147279	     -2.22027337
      1.42000000	     -3.69846850	     -0.64751899	      1.53350971	     -0.96146502	      1.00582447	     -0.59751141	     10.78456424	     -3.95781239	     -2.19119506	    -25.47063273	     14.59377447	      5.18986491	      3.30437025	      0.64686656	     -5.64334518	    -11.92559904	     12.93830406	     -3.20128994	     -1.73204110	     -3.77123521	     -2.11953949
      1.43000000	     -3.74986299	     -0.33179820	      1.30059499	     -0.96054430	      1.00505354	     -0.59820339	     11.82969054	     -4.34808155	     -2.05257196	    -27.26448976	     14.61904698	      5.35866815	      3.24260448	      1.03295216	     -5.86255289	    -11.88131094	     13.04258904	     -3.26011630	     -1.80412797	     -4.17461342	     -2.02598836
      1.44000000	     -3.72366065	     -0.02360145	      1.03832051	     -0.95953404	      1.00444321	     -0.59874201	     12.83273226	     -4.71698916	     -1.96545516	    -29.08407469	     14.60287728	      5.38728723	      3.07629530	      1.40451211	     -6.10203681	    -11.80021223	     13.10004483	     -3.30046471	     -1.97248087	     -4.57357839	     -1.92517031
      1.45000000	     -3.72077348	      0.23079057	      0.74994668	     -0.95846587	      1.00385510	     -0.59911777	     13.90164976	     -5.01767779	     -1.93390527	    -30.90949915	     14.48984126	      5.39019944	      2.94286534	      1.71102735	     -6.36586483	    -11.73535336	     13.18153691	     -3.35778973	     -2.11155808	     -4.91627899	     -1.83652090
      1.46000000	     -3.71042983	      0.43044626	      0.44771165	     -0.95730862	      1.00335115	     -0.59937422	     14.98035645	     -5.25282085	     -1.96926173	    -32.69000836	     14.31590991	      5.33533448	      2.80206374	      1.95431121	     -6.64184010	    -11.67518538	     13.27384931	     -3.42257226	     -2.25580939	     -5.19444656	     -1.76102969
      1.47000000	     -3.69693357	      0.56807691	      0.13376764	     -0.95605870	      1.00294384	     -0.59951406	     16.05665573	     -5.41475793	     -2.07276150	    -34.37723925	     14.11528623	      5.21578767	      2.65784051	      2.12655816	     -6.92387861	    -11.62110919	     13.36951396	     -3.49103327	     -2.39810603	     -5.40161589	     -1.70063269
      1.48000000	     -3.68064171	      0.64212581	     -0.18169228	     -0.95470229	      1.00263534	     -0.59957968	     17.11125933	     -5.50506474	     -2.24510482	    -35.92425533	     13.90828693	      5.03662814	      2.50914259	      2.22872752	     -7.20607949	    -11.57169362	     13.47318362	     -3.55997822	     -2.53571161	     -5.53190850	     -1.65956602
      1.49000000	     -3.66291231	      0.65464530	     -0.49204445	     -0.95325076	      1.00243137	     -0.59958731	     18.13129837	     -5.52599943	     -2.48085817	    -37.29066326	     13.71791709	      4.81521310	      2.35632559	      2.26335042	     -7.47952920	    -11.52585786	     13.57675864	     -3.62364720	     -2.67103918	     -5.58751712	     -1.63711439
      1.50000000	     -3.65264541	      0.61054076	     -0.78912627	     -0.95169381	      1.00231177	     -0.59956776	     19.11301314	     -5.48626754	     -2.78061409	    -38.44588255	     13.54927491	      4.56941071	      2.20592879	      2.23702616	     -7.74003356	    -11.47953909	     13.68009812	     -3.68083075	     -2.79329488	     -5.57074234	     -1.63697553
      1.51000000	     -3.64871709	      0.52151464	     -1.06934224	     -0.95003958	      1.00226708	     -0.59954524	     20.04796125	     -5.40009732	     -3.13551153	    -39.36986393	     13.40364320	      4.32806034	      2.05669116	      2.16345792	     -7.98027332	    -11.43301638	     13.77759329	     -3.72806336	     -2.90823915	     -5.49224410	     -1.65784543
      1.52000000	     -3.64982542	      0.40024310	     -1.32932610	     -0.94827791	      1.00227836	     -0.59953121	     20.92976200	     -5.28295212	     -3.53902408	    -40.05241217	     13.27747141	      4.11781711	      1.90598351	      2.05662716	     -8.19656286	    -11.38669700	     13.86670996	     -3.76388838	     -3.01755551	     -5.36581198	     -1.70194698
      1.53000000	     -3.66184259	      0.26126999	     -1.56845371	     -0.94641285	      1.00231814	     -0.59953485	     21.76427359	     -5.15126199	     -3.97953660	    -40.49386801	     13.17295076	      3.94173160	      1.75792777	      1.93216609	     -8.38885949	    -11.33513142	     13.94258961	     -3.78867504	     -3.11878196	     -5.20625821	     -1.76777226
      1.54000000	     -3.68141017	      0.11509649	     -1.78688140	     -0.94443820	      1.00236506	     -0.59954774	     22.54994734	     -5.01552502	     -4.44659547	    -40.70400579	     13.07311753	      3.81298227	      1.61072920	      1.80037319	     -8.56263534	    -11.28257907	     14.01196939	     -3.80396892	     -3.21452993	     -5.02819878	     -1.85556492
      1.55000000	     -3.69697488	     -0.02845431	     -1.98044183	     -0.94235626	      1.00242128	     -0.59958083	     23.27708710	     -4.89031385	     -4.93543498	    -40.69535558	     12.96094205	      3.75434106	      1.45457572	      1.67079183	     -8.73587362	    -11.23169301	     14.05203198	     -3.80889779	     -3.32378567	     -4.84089433	     -1.97231931
      1.56000000	     -3.73522793	     -0.17240085	     -2.15855151	     -0.94014237	      1.00241544	     -0.59959822	     23.97858874	     -4.76361186	     -5.42784648	    -40.49142269	     12.85957364	      3.71337804	      1.30467016	      1.54136825	     -8.87540246	    -11.16389353	     14.11458444	     -3.80893568	     -3.40550010	     -4.64464372	     -2.10262106
      1.57000000	     -3.77523699	     -0.30433061	     -2.31651525	     -0.93781106	      1.00236809	     -0.59960699	     24.63795367	     -4.65254615	     -5.91988280	    -40.11206564	     12.74144560	      3.70945195	      1.14413390	      1.42395692	     -9.00609169	    -11.08475760	     14.18195017	     -3.80301007	     -3.49005072	     -4.45421239	     -2.26029770
      1.58000000	     -3.81662245	     -0.43022506	     -2.45075431	     -0.93535982	      1.00227746	     -0.59960115	     25.25124300	     -4.55012607	     -6.41031917	    -39.56614310	     12.60486469	      3.74552557	      0.97192270	      1.31156881	     -9.12625797	    -10.99237451	     14.25304990	     -3.79168481	     -3.57914760	     -4.26507454	     -2.44032698
      1.59000000	     -3.85094298	     -0.54638542	     -2.57163151	     -0.93278254	      1.00213467	     -0.59956688	     25.82323222	     -4.45946362	     -6.89113376	    -38.89066583	     12.45911743	      3.81548032	      0.77282086	      1.20931493	     -9.23660907	    -10.87777605	     14.33128443	     -3.77582235	     -3.67866546	     -4.08014672	     -2.64082724
      1.60000000	     -3.87883134	     -0.65394087	     -2.67542125	     -0.93007722	      1.00194262	     -0.59950923	     26.34992487	     -4.37824044	     -7.35943829	    -38.08923391	     12.30199498	      3.91255384	      0.54656813	      1.11670343	     -9.34046126	    -10.73840456	     14.41415015	     -3.75527456	     -3.79052733	     -3.90023933	     -2.85612876
      1.61000000	     -3.89554438	     -0.74954782	     -2.77025559	     -0.92723982	      1.00170127	     -0.59939546	     26.83255763	     -4.30624553	     -7.80777982	    -37.18462144	     12.14060223	      4.02626968	      0.28726225	      1.03556340	     -9.43911925	    -10.57373083	     14.50312463	     -3.72968617	     -3.91594040	     -3.73398909	     -3.08037592
      1.62000000	     -3.89781272	     -0.84022136	     -2.85811868	     -0.92426136	      1.00141812	     -0.59921491	     27.26593852	     -4.23563377	     -8.24141512	    -36.18659077	     11.97185090	      4.15455331	     -0.01124026	      0.95851954	     -9.53353287	    -10.38123803	     14.60334057	     -3.69467497	     -4.05751964	     -3.57486429	     -3.31668937
      1.63000000	     -3.86769953	     -0.91852779	     -2.93857496	     -0.92114148	      1.00111072	     -0.59899479	     27.63281307	     -4.17580660	     -8.64699661	    -35.11090171	     11.82545224	      4.29798530	     -0.36776008	      0.89611549	     -9.63415426	    -10.16014467	     14.73577292	     -3.63806576	     -4.23851934	     -3.42537503	     -3.55770430
      1.64000000	     -3.85411735	     -0.97958564	     -3.02703101	     -0.91789750	      1.00072086	     -0.59868179	     27.99579000	     -4.12416508	     -9.02865040	    -33.97767932	     11.64078645	      4.43345000	     -0.72748509	      0.84854709	     -9.74607540	     -9.91433757	     14.83562706	     -3.57828705	     -4.39547071	     -3.29918990	     -3.77279845
      1.65000000	     -3.82405383	     -1.03157423	     -3.12050517	     -0.91450825	      1.00028913	     -0.59830339	     28.31427212	     -4.08137559	     -9.40133494	    -32.79658654	     11.46438078	      4.57828255	     -1.12843280	      0.81008012	     -9.86996391	     -9.64344967	     14.95106122	     -3.49739828	     -4.56857039	     -3.18396377	     -3.96001359
      1.66000000	     -3.79657054	     -1.06959703	     -3.22273011	     -0.91099910	      0.99979547	     -0.59784219	     28.61119200	     -4.04465149	     -9.75054746	    -31.57611203	     11.28123512	      4.72828480	     -1.54772527	      0.78473108	    -10.00633256	     -9.34794365	     15.06524526	     -3.40026990	     -4.73428693	     -3.08569615	     -4.11763576
